<?xml version="1.0" encoding="utf-8"?>
<!-- Generator: Adobe Illustrator 25.2.1, SVG Export Plug-In . SVG Version: 6.00 Build 0)  -->
<svg version="1.1" id="Moneypenny_logo" xmlns="http://www.w3.org/2000/svg" xmlns:xlink="http://www.w3.org/1999/xlink" x="0px"
	 y="0px" viewBox="0 0 433 132" style="enable-background:new 0 0 433 132;" xml:space="preserve">
<style type="text/css">
	.st0{fill:#002C5D;}
	.st1{fill:#A3D9F5;}
	.st2{fill:#0067AE;}
</style>
<g>
	<g>
		<g>
			<path class="st0" d="M15,25.9c0.2-1.5,1-2.4,2.5-2.4h3.7c1.4,0,2.3,0.7,2.8,2l7.5,18.8c1,2.5,2.1,6.2,2.1,6.2h0.1
				c0,0,1.1-3.7,2.1-6.2l7.5-18.8c0.5-1.4,1.4-2,2.8-2H50c1.5,0,2.4,0.8,2.6,2.4l3,37.2c0.1,1.6-0.7,2.6-2.4,2.6h-2.7
				c-1.5,0-2.4-0.8-2.6-2.4l-1.6-21.2c-0.2-2.8-0.1-6.5-0.1-6.5h-0.1c0,0-1.3,4.1-2.2,6.5l-6.1,14.3c-0.5,1.3-1.4,2-2.8,2h-2.5
				c-1.5,0-2.4-0.7-2.8-2l-6-14.3c-1-2.4-2.3-6.6-2.3-6.6h-0.1c0,0,0.1,3.8-0.1,6.6l-1.6,21.2c-0.1,1.5-1,2.4-2.5,2.4h-2.7
				c-1.7,0-2.5-0.9-2.4-2.6L15,25.9z"/>
			<path class="st0" d="M84.4,22.8c12.7,0,21.8,9.4,21.8,21.5c0,12.4-9,22-21.8,22s-21.8-9.7-21.8-22C62.6,32.3,71.6,22.8,84.4,22.8
				z M84.4,59.3c8.1,0,13.9-6.5,13.9-15.1c0-8.2-5.8-14.5-13.9-14.5s-13.9,6.3-13.9,14.5C70.5,52.8,76.3,59.3,84.4,59.3z"/>
			<path class="st0" d="M114.5,26c0-1.6,0.8-2.5,2.4-2.5h3.2c1.4,0,2.3,0.5,3,1.7L138,47.8c1.6,2.5,3.5,6.5,3.5,6.5h0.1
				c0,0-0.4-4-0.4-6.5V26c0-1.6,0.9-2.5,2.5-2.5h2.7c1.6,0,2.5,0.9,2.5,2.5v37.1c0,1.7-0.9,2.5-2.5,2.5h-3.2c-1.3,0-2.2-0.5-2.9-1.7
				l-15-22.6c-1.5-2.5-3.5-6.5-3.5-6.5h-0.1c0,0,0.4,4,0.4,6.5v21.8c0,1.7-0.8,2.5-2.4,2.5H117c-1.6,0-2.4-0.8-2.4-2.5L114.5,26
				L114.5,26z"/>
			<path class="st0" d="M159.7,26c0-1.6,0.8-2.5,2.4-2.5h20.3c1.6,0,2.5,0.9,2.5,2.5v1.7c0,1.6-0.9,2.4-2.5,2.4h-15.1v11H179
				c1.6,0,2.5,0.8,2.5,2.4v1.7c0,1.7-0.9,2.5-2.5,2.5h-11.7V59h16.1c1.6,0,2.5,0.8,2.5,2.4v1.7c0,1.7-0.9,2.5-2.5,2.5h-21.2
				c-1.6,0-2.4-0.8-2.4-2.5L159.7,26L159.7,26z"/>
			<path class="st0" d="M202.5,48l-12.3-21.5c-1-1.7-0.2-3,1.7-3h3.3c1.4,0,2.2,0.6,2.8,1.8l5.7,10.5c1.3,2.6,2.6,5.6,2.6,5.6h0.1
				c0,0,1.2-3,2.6-5.6l5.7-10.5c0.6-1.2,1.5-1.8,2.8-1.8h3.3c2,0,2.7,1.3,1.7,3L210.1,48v15.1c0,1.7-0.8,2.5-2.4,2.5H205
				c-1.7,0-2.5-0.8-2.5-2.5L202.5,48L202.5,48z"/>
			<path class="st0" d="M229.5,26c0-1.6,0.8-2.5,2.4-2.5h13.8c7.9,0,13.4,5.5,13.4,13.7s-5.5,13.9-13.4,13.9h-8.6v12
				c0,1.7-0.8,2.5-2.4,2.5h-2.7c-1.6,0-2.4-0.8-2.4-2.5V26z M244.2,44.5c4.5,0,7-2.8,7-7.2c0-4.3-2.5-7.1-6.9-7.1h-7.3v14.3
				C237.1,44.5,244.2,44.5,244.2,44.5z"/>
			<path class="st0" d="M266.5,26c0-1.6,0.8-2.5,2.4-2.5h20.3c1.6,0,2.5,0.9,2.5,2.5v1.7c0,1.6-0.9,2.4-2.5,2.4H274v11h11.7
				c1.6,0,2.5,0.8,2.5,2.4v1.7c0,1.7-0.9,2.5-2.5,2.5H274V59h16.1c1.6,0,2.5,0.8,2.5,2.4v1.7c0,1.7-0.9,2.5-2.5,2.5h-21.2
				c-1.6,0-2.4-0.8-2.4-2.5L266.5,26L266.5,26z"/>
			<path class="st0" d="M300.6,26c0-1.6,0.8-2.5,2.4-2.5h3.2c1.4,0,2.3,0.5,3,1.7l14.9,22.6c1.6,2.5,3.5,6.5,3.5,6.5h0.1
				c0,0-0.4-4-0.4-6.5V26c0-1.6,0.9-2.5,2.5-2.5h2.7c1.6,0,2.5,0.9,2.5,2.5v37.1c0,1.7-0.9,2.5-2.5,2.5h-3.2c-1.3,0-2.2-0.5-2.9-1.7
				l-15-22.6c-1.5-2.5-3.5-6.5-3.5-6.5h-0.1c0,0,0.4,4,0.4,6.5v21.8c0,1.7-0.8,2.5-2.4,2.5h-2.7c-1.6,0-2.4-0.8-2.4-2.5V26z"/>
			<path class="st0" d="M345.9,26c0-1.6,0.8-2.5,2.4-2.5h3.2c1.4,0,2.3,0.5,3,1.7l14.9,22.6c1.6,2.5,3.5,6.5,3.5,6.5h0.1
				c0,0-0.4-4-0.4-6.5V26c0-1.6,0.9-2.5,2.5-2.5h2.7c1.6,0,2.5,0.9,2.5,2.5v37.1c0,1.7-0.9,2.5-2.5,2.5h-3.2c-1.3,0-2.2-0.5-2.9-1.7
				l-15-22.6c-1.5-2.5-3.5-6.5-3.5-6.5H353c0,0,0.4,4,0.4,6.5v21.8c0,1.7-0.8,2.5-2.4,2.5h-2.7c-1.6,0-2.4-0.8-2.4-2.5V26z"/>
			<path class="st0" d="M399.6,48l-12.3-21.5c-1-1.7-0.2-3,1.7-3h3.3c1.4,0,2.2,0.6,2.8,1.8l5.7,10.5c1.3,2.6,2.5,5.6,2.5,5.6h0.1
				c0,0,1.2-3,2.5-5.6l5.7-10.5c0.6-1.2,1.5-1.8,2.8-1.8h3.3c2,0,2.7,1.3,1.7,3L407.2,48v15.1c0,1.7-0.8,2.5-2.4,2.5h-2.7
				c-1.7,0-2.5-0.8-2.5-2.5L399.6,48L399.6,48z"/>
		</g>
		<path class="st1" d="M190,11c-1,1-1,2.6,0,3.6c1,1,2.6,1,3.6,0c6.9-6.9,18-6.9,24.9,0c0.5,0.5,1.1,0.8,1.8,0.8
			c0.6,0,1.3-0.2,1.8-0.8c1-1,1-2.6,0-3.6C213.2,2.2,198.9,2.2,190,11L190,11z"/>
		<circle class="st0" cx="206" cy="24.9" r="4.9"/>
	</g>
	<g>
		<path class="st0" d="M12,111.4c0-0.7,0.3-1,1-1h7.9c0.7,0,1,0.3,1,1v0.7c0,0.7-0.3,1-1,1h-5.8v4.9h4.7c0.7,0,1,0.3,1,1v0.7
			c0,0.7-0.3,1-1,1h-4.7v6c0,0.7-0.3,1-1,1H13c-0.7,0-1-0.3-1-1V111.4z"/>
		<path class="st0" d="M25.4,118.8c0-1.2,0.2-2.4,0.7-3.4c0.4-1.1,1-2,1.8-2.8c0.8-0.8,1.7-1.4,2.8-1.9s2.3-0.7,3.6-0.7
			c1.3,0,2.5,0.2,3.6,0.7s2,1.1,2.8,1.9s1.4,1.7,1.8,2.8c0.4,1.1,0.7,2.2,0.7,3.4c0,1.3-0.2,2.4-0.7,3.6s-1.1,2.1-1.8,2.9
			c-0.8,0.8-1.7,1.5-2.8,1.9s-2.3,0.7-3.6,0.7c-1.3,0-2.5-0.2-3.6-0.7s-2-1.1-2.8-1.9s-1.4-1.8-1.8-2.9
			C25.6,121.3,25.4,120.1,25.4,118.8z M28.6,118.8c0,0.9,0.1,1.7,0.4,2.4s0.7,1.4,1.2,2s1.1,1,1.8,1.3c0.7,0.3,1.5,0.5,2.3,0.5
			s1.6-0.2,2.3-0.5c0.7-0.3,1.3-0.8,1.8-1.3s0.9-1.2,1.2-2c0.3-0.8,0.4-1.6,0.4-2.4c0-0.8-0.1-1.6-0.4-2.4c-0.3-0.7-0.7-1.4-1.2-1.9
			c-0.5-0.5-1.1-0.9-1.8-1.2c-0.7-0.3-1.5-0.4-2.3-0.4s-1.6,0.1-2.3,0.4s-1.3,0.7-1.8,1.2c-0.5,0.5-0.9,1.2-1.2,1.9
			C28.8,117.2,28.6,118,28.6,118.8z"/>
		<path class="st0" d="M47.1,118.9c0-1.2,0.2-2.4,0.7-3.5s1.1-2,1.8-2.8c0.8-0.8,1.7-1.4,2.8-1.9s2.3-0.7,3.6-0.7
			c0.7,0,1.3,0.1,1.9,0.2c0.6,0.1,1.1,0.3,1.6,0.4c0.5,0.2,0.9,0.4,1.2,0.6s0.7,0.4,0.9,0.6c0.5,0.4,0.6,0.8,0.2,1.4l-0.4,0.7
			c-0.3,0.5-0.8,0.6-1.4,0.2c-0.4-0.2-0.9-0.5-1.6-0.8c-0.7-0.3-1.4-0.4-2.3-0.4c-0.9,0-1.8,0.2-2.5,0.5c-0.7,0.3-1.3,0.8-1.8,1.3
			c-0.5,0.5-0.9,1.2-1.1,1.9s-0.4,1.5-0.4,2.3c0,0.8,0.1,1.6,0.4,2.3c0.3,0.8,0.6,1.4,1.1,2s1.1,1,1.8,1.4s1.5,0.5,2.5,0.5
			c0.5,0,0.9-0.1,1.4-0.2c0.4-0.1,0.8-0.2,1.2-0.4c0.4-0.1,0.7-0.3,1-0.5c0.3-0.2,0.5-0.3,0.7-0.5c0.6-0.4,1-0.4,1.4,0.2l0.5,0.7
			c0.4,0.5,0.3,1-0.2,1.4c-0.2,0.2-0.6,0.4-0.9,0.7c-0.4,0.2-0.8,0.5-1.3,0.7c-0.5,0.2-1.1,0.4-1.7,0.6c-0.6,0.1-1.3,0.2-2.1,0.2
			c-1.4,0-2.6-0.2-3.7-0.7c-1.1-0.5-2-1.1-2.8-1.9c-0.8-0.8-1.4-1.8-1.8-2.9C47.3,121.3,47.1,120.1,47.1,118.9z"/>
		<path class="st0" d="M67,111.4c0-0.7,0.3-1,1-1h1.1c0.7,0,1,0.3,1,1v10c0,1.2,0.3,2.1,1,2.7c0.7,0.6,1.6,0.9,2.8,0.9
			s2.1-0.3,2.8-0.9c0.7-0.6,1.1-1.5,1.1-2.7v-10c0-0.7,0.3-1,1-1h1.1c0.7,0,1,0.3,1,1v10c0,1-0.2,1.9-0.5,2.6s-0.8,1.5-1.4,2
			c-0.6,0.6-1.3,1-2.2,1.3c-0.8,0.3-1.8,0.5-2.8,0.5c-1.1,0-2-0.2-2.9-0.5c-0.8-0.3-1.6-0.8-2.2-1.3s-1.1-1.2-1.4-2
			s-0.5-1.7-0.5-2.6L67,111.4L67,111.4z"/>
		<path class="st0" d="M86,126.1c-0.2-0.2-0.3-0.4-0.4-0.6s0-0.5,0.3-0.8l0.5-0.8c0.2-0.3,0.4-0.4,0.6-0.4s0.5,0.1,0.8,0.2
			c0.2,0.1,0.3,0.2,0.6,0.4c0.2,0.1,0.5,0.3,0.8,0.4c0.3,0.1,0.6,0.2,1,0.3s0.8,0.1,1.2,0.1c0.8,0,1.4-0.2,1.9-0.6
			c0.4-0.4,0.7-0.8,0.7-1.4c0-0.6-0.2-1-0.6-1.4s-0.9-0.7-1.5-1c-0.6-0.3-1.2-0.6-1.9-0.9s-1.3-0.6-1.9-1.1
			c-0.6-0.4-1.1-0.9-1.5-1.5c-0.4-0.6-0.6-1.3-0.6-2.2c0-0.8,0.2-1.4,0.4-2.1c0.3-0.6,0.7-1.1,1.2-1.6c0.5-0.4,1.1-0.8,1.8-1
			c0.7-0.2,1.5-0.4,2.3-0.4c0.5,0,1,0,1.4,0.1c0.5,0.1,0.9,0.2,1.3,0.3c0.4,0.1,0.7,0.3,1,0.4c0.3,0.1,0.5,0.3,0.7,0.4
			c0.5,0.4,0.6,0.8,0.3,1.4l-0.4,0.8c-0.2,0.4-0.4,0.5-0.6,0.5s-0.5-0.1-0.8-0.2c-0.4-0.2-0.8-0.4-1.2-0.6s-1.1-0.3-1.7-0.3
			c-0.8,0-1.4,0.2-1.9,0.5c-0.5,0.4-0.7,0.8-0.7,1.4c0,0.5,0.2,1,0.6,1.3c0.4,0.4,0.9,0.7,1.5,0.9s1.2,0.6,1.9,0.8s1.3,0.6,1.9,1
			c0.6,0.4,1.1,0.9,1.5,1.5c0.4,0.6,0.6,1.4,0.6,2.3c0,0.7-0.1,1.4-0.4,2s-0.6,1.2-1.1,1.6c-0.5,0.5-1.1,0.8-1.8,1.1
			c-0.7,0.3-1.5,0.4-2.4,0.4c-0.6,0-1.2-0.1-1.8-0.2s-1.1-0.3-1.5-0.4c-0.4-0.2-0.9-0.4-1.2-0.6C86.5,126.5,86.2,126.3,86,126.1z"/>
		<path class="st0" d="M108.9,118.8c0-1.2,0.2-2.4,0.7-3.4c0.4-1.1,1.1-2,1.9-2.8c0.8-0.8,1.7-1.4,2.8-1.9c1.1-0.4,2.3-0.7,3.6-0.7
			c1.3,0,2.5,0.2,3.6,0.7c1.1,0.4,2,1.1,2.8,1.9c0.8,0.8,1.4,1.7,1.9,2.8s0.7,2.2,0.7,3.4c0,1.3-0.2,2.4-0.7,3.6s-1.1,2.1-1.9,2.9
			c-0.8,0.8-1.7,1.5-2.8,1.9c-1.1,0.5-2.3,0.7-3.6,0.7c-1.3,0-2.5-0.2-3.6-0.7c-1.1-0.5-2-1.1-2.8-1.9s-1.4-1.8-1.9-2.9
			C109.1,121.3,108.9,120.1,108.9,118.8z M112.1,118.8c0,0.9,0.1,1.7,0.4,2.4s0.7,1.4,1.2,2s1.1,1,1.8,1.3c0.7,0.3,1.5,0.5,2.3,0.5
			c0.8,0,1.6-0.2,2.3-0.5c0.7-0.3,1.3-0.8,1.8-1.3s0.9-1.2,1.2-2s0.4-1.6,0.4-2.4c0-0.8-0.1-1.6-0.4-2.4c-0.3-0.7-0.7-1.4-1.2-1.9
			c-0.5-0.5-1.1-0.9-1.8-1.2s-1.5-0.4-2.3-0.4c-0.8,0-1.6,0.1-2.3,0.4s-1.3,0.7-1.8,1.2c-0.5,0.5-0.9,1.2-1.2,1.9
			C112.3,117.2,112.1,118,112.1,118.8z"/>
		<path class="st0" d="M131.7,111.4c0-0.7,0.3-1,1-1h1.3c0.6,0,1,0.2,1.2,0.7l6.1,9.3c0.2,0.3,0.3,0.5,0.5,0.9
			c0.2,0.3,0.3,0.6,0.5,0.9c0.2,0.3,0.3,0.6,0.5,0.9h0.1c0-0.3-0.1-0.6-0.1-0.9c0-0.3-0.1-0.6-0.1-0.9s0-0.6,0-0.9v-8.9
			c0-0.7,0.3-1,1-1h1.1c0.7,0,1,0.3,1,1v15.2c0,0.7-0.3,1-1,1h-1.3c-0.6,0-0.9-0.2-1.2-0.7l-6.1-9.3c-0.2-0.3-0.3-0.5-0.5-0.9
			c-0.2-0.3-0.3-0.6-0.4-0.9c-0.2-0.3-0.3-0.6-0.5-0.9h-0.1c0,0.3,0,0.6,0.1,0.9c0,0.3,0.1,0.6,0.1,0.9c0,0.3,0,0.6,0,0.9v8.9
			c0,0.7-0.3,1-1,1h-1.1c-0.7,0-1-0.3-1-1L131.7,111.4L131.7,111.4z"/>
		<path class="st0" d="M158.6,111.4c-0.1-0.3-0.1-0.6,0.1-0.8c0.1-0.2,0.4-0.3,0.8-0.3h1.2c0.6,0,0.9,0.3,1.1,0.9l2.5,11
			c0.1,0.2,0.1,0.5,0.1,0.7s0.1,0.4,0.1,0.6c0,0.2,0.1,0.4,0.1,0.5h0.1c0-0.2,0-0.3,0.1-0.5c0.1-0.4,0.1-0.8,0.3-1.3l2.9-11.1
			c0.2-0.6,0.5-0.9,1.1-0.9h0.8c0.6,0,1,0.3,1.1,0.9l2.8,11.1c0.1,0.3,0.1,0.5,0.2,0.7s0.1,0.4,0.1,0.6c0,0.2,0.1,0.4,0.1,0.5h0.1
			c0-0.2,0-0.3,0.1-0.5c0-0.2,0.1-0.4,0.1-0.6s0.1-0.4,0.1-0.7l2.6-11c0.1-0.6,0.5-0.9,1.1-0.9h1.1c0.4,0,0.6,0.1,0.8,0.3
			s0.2,0.5,0.1,0.8l-4,15.3c-0.2,0.6-0.5,0.9-1.1,0.9h-1.7c-0.6,0-1-0.3-1.1-0.9l-2.5-9.3c-0.1-0.6-0.3-1.1-0.3-1.6
			c-0.1-0.2-0.1-0.5-0.1-0.7h-0.1c0,0.2-0.1,0.5-0.1,0.7c0,0.2-0.1,0.5-0.1,0.7c-0.1,0.3-0.1,0.5-0.2,0.8l-2.5,9.3
			c-0.1,0.6-0.5,0.9-1.1,0.9h-1.8c-0.6,0-1-0.3-1.1-0.9L158.6,111.4z"/>
		<path class="st0" d="M184.9,111.4c0-0.7,0.3-1,1-1h1.1c0.7,0,1,0.3,1,1v6.3h7.9v-6.3c0-0.7,0.3-1,1-1h1.1c0.7,0,1,0.3,1,1v15.2
			c0,0.7-0.3,1-1,1h-1.1c-0.7,0-1-0.3-1-1v-6.2H188v6.2c0,0.7-0.3,1-1,1h-1.1c-0.7,0-1-0.3-1-1V111.4z"/>
		<path class="st0" d="M208.7,111.1c0.2-0.6,0.6-0.8,1.1-0.8h1.6c0.6,0,1,0.3,1.1,0.8l5.4,15.3c0.1,0.4,0.1,0.6,0,0.9
			c-0.1,0.2-0.4,0.3-0.8,0.3H216c-0.6,0-1-0.3-1.1-0.8l-1.2-3.6h-6.1l-1.2,3.6c-0.2,0.6-0.5,0.9-1.1,0.9h-1.1
			c-0.4,0-0.6-0.1-0.8-0.3s-0.2-0.5,0-0.9L208.7,111.1z M212.9,120.6l-1.5-4.6c-0.1-0.2-0.2-0.5-0.2-0.8s-0.1-0.6-0.2-0.9
			c-0.1-0.3-0.1-0.6-0.2-1h-0.1c-0.1,0.3-0.2,0.7-0.2,1c-0.1,0.3-0.1,0.6-0.2,0.9c-0.1,0.3-0.1,0.6-0.2,0.8l-1.6,4.6H212.9z"/>
		<path class="st0" d="M224.5,113h-4.6c-0.7,0-1-0.3-1-1v-0.7c0-0.7,0.3-1,1-1h12.4c0.7,0,1,0.3,1,1v0.7c0,0.7-0.3,1-1,1h-4.6v13.6
			c0,0.7-0.3,1-1,1h-1.1c-0.7,0-1-0.3-1-1L224.5,113L224.5,113z"/>
		<path class="st0" d="M248.9,120.4l-5.1-8.8c-0.2-0.3-0.2-0.6-0.1-0.9s0.4-0.4,0.8-0.4h1.4c0.5,0,0.9,0.2,1.2,0.8l2.3,4.3
			c0.1,0.3,0.3,0.6,0.4,0.8c0.1,0.3,0.2,0.5,0.3,0.7c0.1,0.3,0.2,0.5,0.3,0.8h0c0.1-0.2,0.2-0.5,0.3-0.8c0.1-0.2,0.2-0.5,0.3-0.7
			s0.3-0.5,0.4-0.8l2.3-4.3c0.2-0.5,0.6-0.8,1.2-0.8h1.4c0.4,0,0.7,0.1,0.8,0.4c0.1,0.2,0.1,0.5-0.1,0.9l-5.1,8.8v6.2
			c0,0.7-0.3,1-1,1h-1.1c-0.7,0-1-0.3-1-1L248.9,120.4L248.9,120.4z"/>
		<path class="st0" d="M259.9,118.8c0-1.2,0.2-2.4,0.7-3.4c0.4-1.1,1-2,1.9-2.8c0.8-0.8,1.7-1.4,2.8-1.9s2.3-0.7,3.6-0.7
			s2.5,0.2,3.6,0.7s2,1.1,2.8,1.9s1.4,1.7,1.9,2.8s0.7,2.2,0.7,3.4c0,1.3-0.2,2.4-0.7,3.6s-1,2.1-1.9,2.9s-1.7,1.5-2.8,1.9
			c-1.1,0.5-2.3,0.7-3.6,0.7s-2.5-0.2-3.6-0.7s-2-1.1-2.8-1.9c-0.8-0.8-1.4-1.8-1.9-2.9C260.1,121.3,259.9,120.1,259.9,118.8z
			 M263.1,118.8c0,0.9,0.1,1.7,0.4,2.4s0.7,1.4,1.2,2s1.1,1,1.8,1.3c0.7,0.3,1.5,0.5,2.3,0.5c0.8,0,1.6-0.2,2.3-0.5
			c0.7-0.3,1.3-0.8,1.8-1.3s0.9-1.2,1.2-2c0.3-0.8,0.4-1.6,0.4-2.4c0-0.8-0.1-1.6-0.4-2.4c-0.3-0.7-0.7-1.4-1.2-1.9
			c-0.5-0.5-1.1-0.9-1.8-1.2c-0.7-0.3-1.5-0.4-2.3-0.4c-0.8,0-1.6,0.1-2.3,0.4s-1.3,0.7-1.8,1.2c-0.5,0.5-0.9,1.2-1.2,1.9
			C263.3,117.2,263.1,118,263.1,118.8z"/>
		<path class="st0" d="M282.5,111.4c0-0.7,0.3-1,1-1h1.1c0.7,0,1,0.3,1,1v10c0,1.2,0.3,2.1,1,2.7c0.7,0.6,1.6,0.9,2.8,0.9
			s2.1-0.3,2.8-0.9c0.7-0.6,1-1.5,1-2.7v-10c0-0.7,0.3-1,1-1h1.1c0.7,0,1,0.3,1,1v10c0,1-0.2,1.9-0.5,2.6s-0.8,1.5-1.4,2
			c-0.6,0.6-1.3,1-2.2,1.3s-1.8,0.5-2.8,0.5c-1,0-2-0.2-2.9-0.5c-0.9-0.3-1.6-0.8-2.2-1.3c-0.6-0.6-1.1-1.2-1.4-2
			c-0.3-0.8-0.5-1.7-0.5-2.6L282.5,111.4L282.5,111.4z"/>
		<path class="st0" d="M310.1,111.4c0-0.7,0.3-1,1-1h4.9c1.3,0,2.5,0.2,3.6,0.6c1.1,0.4,2,0.9,2.8,1.7c0.8,0.7,1.4,1.6,1.8,2.7
			c0.4,1.1,0.6,2.3,0.6,3.6s-0.2,2.6-0.6,3.6c-0.4,1.1-1,2-1.8,2.7c-0.8,0.8-1.7,1.3-2.8,1.7c-1.1,0.4-2.3,0.6-3.6,0.6h-4.9
			c-0.7,0-1-0.3-1-1V111.4z M315.8,124.9c1.8,0,3.1-0.5,4.2-1.5c1-1,1.6-2.5,1.6-4.5c0-1-0.1-1.8-0.4-2.6c-0.3-0.7-0.7-1.4-1.2-1.9
			c-0.5-0.5-1.1-0.9-1.8-1.1c-0.7-0.3-1.5-0.4-2.4-0.4h-2.6v11.9L315.8,124.9L315.8,124.9z"/>
		<path class="st0" d="M328.8,118.8c0-1.2,0.2-2.4,0.7-3.4c0.4-1.1,1-2,1.9-2.8c0.8-0.8,1.7-1.4,2.8-1.9s2.3-0.7,3.6-0.7
			s2.5,0.2,3.6,0.7s2,1.1,2.8,1.9s1.4,1.7,1.9,2.8s0.7,2.2,0.7,3.4c0,1.3-0.2,2.4-0.7,3.6s-1,2.1-1.9,2.9s-1.7,1.5-2.8,1.9
			c-1.1,0.5-2.3,0.7-3.6,0.7s-2.5-0.2-3.6-0.7s-2-1.1-2.8-1.9s-1.4-1.8-1.9-2.9C329,121.3,328.8,120.1,328.8,118.8z M332,118.8
			c0,0.9,0.1,1.7,0.4,2.4s0.7,1.4,1.2,2s1.1,1,1.8,1.3c0.7,0.3,1.5,0.5,2.3,0.5s1.6-0.2,2.3-0.5c0.7-0.3,1.3-0.8,1.8-1.3
			s0.9-1.2,1.2-2c0.3-0.8,0.4-1.6,0.4-2.4c0-0.8-0.1-1.6-0.4-2.4c-0.3-0.7-0.7-1.4-1.2-1.9c-0.5-0.5-1.1-0.9-1.8-1.2
			c-0.7-0.3-1.5-0.4-2.3-0.4s-1.6,0.1-2.3,0.4s-1.3,0.7-1.8,1.2c-0.5,0.5-0.9,1.2-1.2,1.9C332.1,117.2,332,118,332,118.8z"/>
		<path class="st0" d="M359.5,111.4c0-0.7,0.3-1,1-1h5.1c0.8,0,1.5,0.1,2.1,0.3c0.7,0.2,1.2,0.5,1.7,0.9s0.8,0.9,1.1,1.4
			c0.3,0.6,0.4,1.2,0.4,1.9c0,0.8-0.2,1.5-0.5,2.2c-0.4,0.6-0.9,1.1-1.5,1.5v0.1c0.5,0.1,0.9,0.4,1.2,0.6c0.4,0.3,0.6,0.6,0.9,1
			c0.2,0.4,0.4,0.8,0.5,1.2c0.1,0.4,0.2,0.9,0.2,1.3c0,0.9-0.2,1.6-0.5,2.2c-0.3,0.6-0.8,1.1-1.3,1.6c-0.5,0.4-1.2,0.7-1.9,0.9
			s-1.5,0.3-2.3,0.3h-5.2c-0.7,0-1-0.3-1-1V111.4z M365.7,117.4c0.7,0,1.2-0.2,1.6-0.6c0.4-0.4,0.5-1,0.5-1.6s-0.2-1.1-0.5-1.5
			c-0.4-0.4-0.9-0.6-1.6-0.6h-3v4.4L365.7,117.4L365.7,117.4z M366,124.9c0.8,0,1.4-0.2,1.9-0.7s0.6-1.1,0.6-1.8
			c0-0.7-0.2-1.3-0.7-1.8s-1-0.7-1.9-0.7h-3.4v5L366,124.9L366,124.9z"/>
		<path class="st0" d="M376.6,111.4c0-0.7,0.3-1,1-1h8.3c0.7,0,1,0.3,1,1v0.7c0,0.7-0.3,1-1,1h-6.2v4.6h4.8c0.7,0,1,0.3,1,1v0.7
			c0,0.7-0.3,1-1,1h-4.8v4.7h6.6c0.7,0,1,0.3,1,1v0.7c0,0.7-0.3,1-1,1h-8.7c-0.7,0-1-0.3-1-1L376.6,111.4L376.6,111.4z"/>
		<path class="st0" d="M391.5,126.1c-0.2-0.2-0.3-0.4-0.4-0.6s0-0.5,0.2-0.8l0.5-0.8c0.2-0.3,0.4-0.4,0.6-0.4s0.5,0.1,0.8,0.2
			c0.1,0.1,0.3,0.2,0.5,0.4c0.2,0.1,0.5,0.3,0.8,0.4s0.6,0.2,1,0.3c0.4,0.1,0.8,0.1,1.2,0.1c0.8,0,1.4-0.2,1.9-0.6s0.7-0.8,0.7-1.4
			c0-0.6-0.2-1-0.6-1.4s-0.9-0.7-1.5-1s-1.2-0.6-1.9-0.9c-0.7-0.3-1.3-0.6-1.9-1.1c-0.6-0.4-1.1-0.9-1.5-1.5
			c-0.4-0.6-0.6-1.3-0.6-2.2c0-0.8,0.1-1.4,0.5-2.1c0.3-0.6,0.7-1.1,1.2-1.6c0.5-0.4,1.1-0.8,1.8-1c0.7-0.2,1.5-0.4,2.3-0.4
			c0.5,0,1,0,1.5,0.1c0.5,0.1,0.9,0.2,1.3,0.3s0.7,0.3,1,0.4c0.3,0.1,0.5,0.3,0.7,0.4c0.5,0.4,0.6,0.8,0.3,1.4l-0.4,0.8
			c-0.2,0.4-0.4,0.5-0.6,0.5s-0.5-0.1-0.8-0.2c-0.4-0.2-0.8-0.4-1.2-0.6s-1.1-0.3-1.7-0.3c-0.8,0-1.5,0.2-1.9,0.5
			c-0.5,0.4-0.7,0.8-0.7,1.4c0,0.5,0.2,1,0.6,1.3c0.4,0.4,0.9,0.7,1.5,0.9c0.6,0.3,1.2,0.6,1.9,0.8s1.3,0.6,1.9,1
			c0.6,0.4,1.1,0.9,1.5,1.5c0.4,0.6,0.6,1.4,0.6,2.3c0,0.7-0.1,1.4-0.4,2s-0.6,1.2-1.1,1.6s-1.1,0.8-1.8,1.1s-1.5,0.4-2.4,0.4
			c-0.6,0-1.2-0.1-1.8-0.2s-1-0.3-1.5-0.4c-0.5-0.2-0.9-0.4-1.2-0.6C392,126.5,391.7,126.3,391.5,126.1z"/>
		<path class="st0" d="M411.2,113h-4.6c-0.7,0-1-0.3-1-1v-0.7c0-0.7,0.3-1,1-1H419c0.7,0,1,0.3,1,1v0.7c0,0.7-0.3,1-1,1h-4.6v13.6
			c0,0.7-0.3,1-1,1h-1.1c-0.7,0-1-0.3-1-1L411.2,113L411.2,113z"/>
	</g>
	<g>
		<path class="st2" d="M59.1,91.6H7c-1.7,0-3-1.3-3-3l0,0c0-1.7,1.3-3,3-3h52.1V91.6z"/>
		<rect x="59.1" y="85.6" class="st1" width="51.2" height="6"/>
		<rect x="110.3" y="85.6" class="st0" width="44" height="6"/>
		<rect x="154.3" y="85.6" class="st2" width="33.5" height="6"/>
		<rect x="187.8" y="85.6" class="st1" width="38.4" height="6"/>
		<rect x="226.2" y="85.6" class="st0" width="36.6" height="6"/>
		<rect x="262.8" y="85.6" class="st2" width="33.9" height="6"/>
		<rect x="296.6" y="85.6" class="st0" width="86.9" height="6"/>
		<path class="st1" d="M425,91.6h-41.5v-6H425c1.7,0,3,1.3,3,3l0,0C428,90.3,426.7,91.6,425,91.6z"/>
	</g>
</g>
</svg>
